<?xml version="1.0" standalone="no"?>
<!DOCTYPE svg PUBLIC "-//W3C//DTD SVG 20010904//EN"
 "http://www.w3.org/TR/2001/REC-SVG-20010904/DTD/svg10.dtd">
<svg version="1.0" xmlns="http://www.w3.org/2000/svg"
 width="400.000000pt" height="400.000000pt" viewBox="0 0 400.000000 400.000000"
 preserveAspectRatio="xMidYMid meet">
<metadata>
Created by potrace 1.14, written by Peter Selinger 2001-2017
</metadata>
<g transform="translate(0.000000,400.000000) scale(0.100000,-0.100000)"
fill="#000000" stroke="none">
<path d="M2152 3890 c-117 -10 -201 -25 -325 -56 -54 -13 -103 -21 -109 -18
-6 4 -8 2 -4 -4 8 -13 -29 -26 -46 -16 -7 4 -10 3 -5 -1 9 -11 -152 -77 -166
-68 -6 4 -7 1 -2 -7 6 -10 4 -12 -11 -6 -10 4 -15 4 -11 0 3 -4 -42 -36 -101
-71 -59 -35 -133 -84 -166 -109 -32 -26 -66 -47 -75 -49 -9 -1 -16 -7 -16 -13
0 -14 -80 -83 -89 -77 -3 3 -4 2 -1 -1 2 -4 -25 -39 -62 -78 -112 -121 -238
-302 -304 -438 -12 -26 -25 -45 -28 -43 -3 1 -7 -7 -7 -18 -2 -31 -69 -199
-76 -191 -4 3 -4 -5 -1 -18 4 -19 3 -20 -7 -8 -9 12 -10 11 -5 -6 3 -12 -4
-58 -14 -104 -11 -46 -26 -127 -32 -181 -7 -55 -15 -99 -18 -99 -16 0 -51 33
-45 42 4 7 2 8 -5 4 -21 -13 -146 118 -176 185 -15 33 -24 67 -21 75 3 8 2 13
-3 10 -11 -7 -12 -1 -60 202 -22 90 -46 171 -56 182 -20 22 -54 29 -83 19 -22
-8 -22 -11 -22 -260 l0 -251 42 -80 c56 -108 81 -136 134 -149 24 -6 42 -15
39 -19 -3 -5 5 -6 17 -2 13 3 19 1 15 -5 -4 -7 0 -10 10 -7 10 2 61 -9 113
-24 l95 -28 7 -85 c14 -171 30 -280 54 -379 13 -56 21 -107 17 -113 -3 -7 -2
-9 2 -5 11 10 76 -162 69 -182 -3 -8 -2 -11 2 -7 4 4 31 -37 59 -91 l51 -97
-12 -135 c-18 -190 -18 -190 6 -190 16 0 19 -5 15 -27 -21 -127 -57 -331 -61
-345 -3 -10 -14 -18 -24 -18 -10 0 -21 -9 -25 -19 -9 -28 -45 -242 -45 -267 0
-23 20 -26 325 -59 72 -8 146 -17 166 -20 34 -4 37 -2 100 76 l64 80 120 -6
c276 -13 674 -24 878 -25 l217 0 0 35 c0 24 5 35 15 35 11 0 15 -11 15 -36 l0
-36 178 6 c97 4 291 11 430 17 139 6 254 10 255 8 2 -2 32 -38 69 -80 l66 -75
159 17 c87 10 168 18 180 18 13 1 29 13 39 30 10 17 22 27 27 24 6 -3 7 -1 4
4 -8 13 41 103 56 103 5 0 7 3 4 6 -3 4 -2 15 4 25 7 13 2 60 -17 161 -27 142
-27 143 -71 189 -24 25 -40 49 -36 54 5 4 3 5 -4 1 -6 -3 -14 -2 -18 4 -4 6
11 10 40 10 37 0 46 3 42 14 -3 8 -11 61 -18 118 -11 88 -17 109 -42 141 -30
39 -26 44 19 27 34 -13 66 5 84 49 7 17 16 28 21 25 5 -3 5 5 0 17 -5 15 -23
28 -51 37 -30 10 -38 17 -29 23 8 5 11 9 7 9 -4 0 21 57 55 127 l62 128 3 635
2 635 -25 64 c-13 35 -22 69 -18 75 3 6 2 8 -2 3 -5 -4 -30 33 -56 82 -91 172
-213 335 -350 466 -46 44 -84 84 -84 90 0 5 -5 10 -11 10 -6 0 -47 26 -90 57
-44 31 -120 81 -171 111 -51 30 -89 57 -85 61 3 4 -2 4 -12 0 -15 -6 -17 -4
-11 6 5 8 4 11 -2 7 -14 -9 -225 77 -216 88 5 4 3 5 -4 2 -6 -4 -56 4 -111 18
-195 49 -425 70 -600 55z"/>
<path d="M462 1930 c0 -14 2 -19 5 -12 2 6 2 18 0 25 -3 6 -5 1 -5 -13z"/>
<path d="M702 1095 c0 -16 2 -22 5 -12 2 9 2 23 0 30 -3 6 -5 -1 -5 -18z"/>
<path d="M692 930 c0 -14 2 -19 5 -12 2 6 2 18 0 25 -3 6 -5 1 -5 -13z"/>
<path d="M3872 890 c0 -14 2 -19 5 -12 2 6 2 18 0 25 -3 6 -5 1 -5 -13z"/>
<path d="M701 694 c0 -11 3 -14 6 -6 3 7 2 16 -1 19 -3 4 -6 -2 -5 -13z"/>
<path d="M691 634 c0 -11 3 -14 6 -6 3 7 2 16 -1 19 -3 4 -6 -2 -5 -13z"/>
<path d="M1478 193 c7 -3 16 -2 19 1 4 3 -2 6 -13 5 -11 0 -14 -3 -6 -6z"/>
<path d="M3063 193 c9 -2 23 -2 30 0 6 3 -1 5 -18 5 -16 0 -22 -2 -12 -5z"/>
<path d="M1778 183 c6 -2 18 -2 25 0 6 3 1 5 -13 5 -14 0 -19 -2 -12 -5z"/>
<path d="M2778 183 c6 -2 18 -2 25 0 6 3 1 5 -13 5 -14 0 -19 -2 -12 -5z"/>
</g>
</svg>
